<?xml version="1.0" encoding="UTF-8"?>
<!-- Generator: Adobe Illustrator 26.1.0, SVG Export Plug-In . SVG Version: 6.00 Build 0)  -->
<svg xmlns="http://www.w3.org/2000/svg" xmlns:xlink="http://www.w3.org/1999/xlink" version="1.1" id="Layer_1" x="0px" y="0px" viewBox="0 0 500 150" style="enable-background:new 0 0 500 150;" xml:space="preserve">
<style type="text/css">
</style>
<g>
	<g>
		<path class="st0" d="M15.36,35.85h35.73c1.96,0,3.58,1.14,4.85,3.42c0.23,0.7,0.35,1.25,0.35,1.63v1.28    c0,1.53-1.36,3.45-4.09,5.75c-1.81,1.87-9.23,9.29-22.26,22.26h-0.1v0.1h20.05c3.26,0,5.32,1.38,6.19,4.15    c0.13,0.23,0.19,0.56,0.19,0.99v1.28c0,1.77-1.1,3.27-3.29,4.5c-0.62,0.3-1.19,0.45-1.72,0.45H15.11c-1.94,0-3.52-1.17-4.76-3.51    C10.12,77.51,10,76.97,10,76.5v-0.99c0-1.77,1.36-3.78,4.09-6.03c5.11-5.15,12.53-12.57,22.26-22.26h-20.5    c-2.7,0-4.59-1.35-5.65-4.06C10.06,42.61,10,42.21,10,41.98v-0.8c0-2.32,1.36-4.03,4.09-5.14C14.55,35.91,14.98,35.85,15.36,35.85    z"></path>
		<path class="st0" d="M65.51,35.85h35.73c1.96,0,3.58,1.14,4.85,3.42c0.23,0.7,0.35,1.25,0.35,1.63v1.28c0,1.83-1.15,3.36-3.45,4.6    c-0.75,0.3-1.45,0.45-2.11,0.45H71.64v5.84h22.61c2.87,0,4.81,1.14,5.81,3.42c0.3,0.66,0.45,1.27,0.45,1.82v0.8    c0,2.32-1.36,4.03-4.09,5.14c-0.45,0.13-0.87,0.19-1.28,0.19h-23.5v5.84h28.61c3.36,0,5.43,1.63,6.19,4.89v1.53    c0,1.77-1.1,3.27-3.29,4.5c-0.62,0.3-1.19,0.45-1.72,0.45H65.25c-1.94,0-3.52-1.17-4.76-3.51c-0.23-0.62-0.35-1.16-0.35-1.63    V41.18c0-2.32,1.36-4.03,4.09-5.14C64.7,35.91,65.13,35.85,65.51,35.85z"></path>
		<path class="st0" d="M115.66,35.85h0.83c1.64,0,3.31,0.96,5.01,2.87c10.73,10.56,18.59,18.25,23.6,23.09V41.98    c0-2.85,1.31-4.81,3.93-5.87c0.57-0.17,1.1-0.26,1.56-0.26h0.8c1.96,0,3.58,1.14,4.85,3.42c0.23,0.7,0.35,1.25,0.35,1.63v35.79    c0,1.77-1.1,3.27-3.29,4.5c-0.62,0.3-1.19,0.45-1.72,0.45h-1.28c-1.64,0-3.67-1.42-6.1-4.25l-22.42-21.9v20.66    c0,2.49-1.44,4.29-4.31,5.4c-0.32,0.06-0.59,0.1-0.8,0.1h-1.28c-1.94,0-3.52-1.17-4.76-3.51c-0.23-0.62-0.35-1.16-0.35-1.63V41.18    c0-2.32,1.36-4.03,4.09-5.14C114.85,35.91,115.27,35.85,115.66,35.85z"></path>
		<path class="st0" d="M165.8,35.85h35.73c1.96,0,3.58,1.14,4.85,3.42c0.23,0.7,0.35,1.25,0.35,1.63v1.28c0,1.83-1.15,3.36-3.45,4.6    c-0.75,0.3-1.45,0.45-2.11,0.45h-11.85V76.3c0,2.36-1.39,4.11-4.18,5.24l-0.93,0.1h-1.28c-1.85,0-3.41-1.14-4.66-3.42    c-0.3-0.74-0.45-1.44-0.45-2.08V47.22h-11.56c-2.7,0-4.59-1.35-5.65-4.06c-0.13-0.55-0.19-0.95-0.19-1.18v-0.8    c0-2.32,1.36-4.03,4.09-5.14C164.99,35.91,165.42,35.85,165.8,35.85z"></path>
		<path class="st0" d="M215.95,35.85h27.27c3.9,0,7.48,1.83,10.76,5.49c1.94,2.79,2.91,5.41,2.91,7.85v1.88    c0,3.73-1.85,7.22-5.56,10.47c-2.26,1.45-4.06,2.29-5.4,2.52v0.06c4.73,4.19,7.83,7.11,9.32,8.75c0.66,1.11,0.99,2.16,0.99,3.16    c0,2.41-1.34,4.2-4.02,5.4c-0.53,0.13-0.93,0.19-1.18,0.19h-1.28c-1.49,0-3.46-1.32-5.91-3.96c-0.85-0.7-5.68-5.12-14.5-13.25    h-7.28v11.72c0,2.49-1.44,4.29-4.31,5.4c-0.32,0.06-0.59,0.1-0.8,0.1h-1.28c-1.94,0-3.52-1.17-4.76-3.51    c-0.23-0.62-0.35-1.16-0.35-1.63V41.18c0-2.32,1.36-4.03,4.09-5.14C215.14,35.91,215.56,35.85,215.95,35.85z M222.08,47.22v5.94    h23.31v-5.94H222.08z"></path>
		<path class="st0" d="M266.25,35.85h0.86c1.96,0,3.59,1.09,4.89,3.26c0.36,0.7,0.54,1.54,0.54,2.52v34.52    c0,2.49-1.47,4.29-4.41,5.4c-0.34,0.06-0.62,0.1-0.83,0.1H266c-2,0-3.63-1.17-4.89-3.51c-0.26-0.62-0.38-1.16-0.38-1.63V41.18    c0-2.32,1.41-4.03,4.21-5.14C265.41,35.91,265.85,35.85,266.25,35.85z"></path>
		<path class="st0" d="M281.59,35.85h0.89c1.51,0,3.18,1.02,5.01,3.07c7.96,7.88,12.01,11.83,12.13,11.85    c9.28-9.32,14.13-14.05,14.56-14.18c0.89-0.49,1.69-0.73,2.39-0.73h0.89c2.02,0,3.63,1.17,4.82,3.51    c0.26,0.62,0.38,1.16,0.38,1.63v1.09c0,1.64-1.43,3.66-4.28,6.07l-10.66,10.63c0,0.06,4.52,4.56,13.57,13.47    c0.92,1.09,1.37,2.19,1.37,3.32v0.83c0,2.34-1.39,4.06-4.18,5.14c-0.34,0.06-0.62,0.1-0.83,0.1h-1.28c-1.55,0-3.47-1.32-5.75-3.96    l-11.11-10.86c-7.79,7.64-12.56,12.28-14.3,13.92c-0.96,0.6-1.81,0.89-2.55,0.89h-1.28c-1.89,0-3.45-1.17-4.66-3.51    c-0.23-0.62-0.35-1.16-0.35-1.63v-0.83c0-1.85,1.28-3.78,3.83-5.78l11.11-11.11v-0.06c-9.34-9.2-14.02-13.87-14.02-14.02    c-0.62-1-0.93-1.91-0.93-2.71v-0.8c0-2.11,1.18-3.77,3.54-4.98C280.55,35.97,281.1,35.85,281.59,35.85z"></path>
		<path class="st0" d="M348.77,35.85h0.83c1.89,0,3.48,1.09,4.76,3.26c0.36,0.7,0.54,1.54,0.54,2.52v28.64h28.61    c3.36,0,5.43,1.63,6.19,4.89v1.53c0,1.77-1.1,3.27-3.29,4.5c-0.62,0.3-1.19,0.45-1.72,0.45h-36.18c-1.94,0-3.52-1.17-4.76-3.51    c-0.23-0.62-0.35-1.16-0.35-1.63V41.18c0-2.32,1.36-4.03,4.09-5.14C347.97,35.91,348.39,35.85,348.77,35.85z"></path>
		<path class="st0" d="M416.29,35.85h0.99c2.36,0,4.27,1.88,5.72,5.65c10.92,21.52,16.54,32.71,16.86,33.56v1.72    c0,1.94-1.28,3.49-3.83,4.66c-0.55,0.13-1,0.19-1.34,0.19h-0.83c-2.38,0-4.31-1.95-5.78-5.84c-7.51-14.86-11.33-22.33-11.43-22.41    c-8.41,16.9-12.85,25.69-13.32,26.37c-1.26,1.26-2.55,1.88-3.9,1.88h-0.8c-1.94,0-3.53-1.17-4.79-3.51    c-0.19-0.68-0.29-1.22-0.29-1.63v-0.7c0-0.85,1.09-3.31,3.26-7.38l15.39-30.4C413.42,36.57,414.78,35.85,416.29,35.85z"></path>
		<path class="st0" d="M449.07,35.85h27.27c3.9,0,7.48,1.83,10.76,5.49c1.94,2.79,2.91,5.41,2.91,7.85v1.88c0,2.45-0.94,5-2.81,7.66    c1.87,2.75,2.81,5.27,2.81,7.57v2.17c0,2.9-1.34,5.86-4.02,8.91c-3.11,2.83-6.21,4.25-9.29,4.25h-27.88    c-1.94,0-3.52-1.17-4.76-3.51c-0.23-0.62-0.35-1.16-0.35-1.63V41.18c0-2.32,1.36-4.03,4.09-5.14    C448.26,35.91,448.68,35.85,449.07,35.85z M455.2,47.22v5.84h23.31v-5.84H455.2z M455.2,64.43v5.84h23.31v-5.84H455.2z"></path>
	</g>
	<g>
		<path class="st0" d="M211.91,113.8V93.37h6.6c1.45,0,2.66,0.26,3.64,0.78c0.97,0.52,1.71,1.24,2.21,2.17    c0.5,0.92,0.74,1.98,0.74,3.17s-0.25,2.24-0.74,3.15c-0.5,0.91-1.23,1.62-2.2,2.14c-0.97,0.51-2.18,0.77-3.61,0.77h-5.62v-1.71    h5.57c1.06,0,1.95-0.18,2.66-0.53c0.71-0.35,1.24-0.85,1.59-1.51c0.35-0.65,0.52-1.42,0.52-2.31c0-0.89-0.18-1.67-0.53-2.34    c-0.35-0.67-0.88-1.19-1.59-1.55c-0.71-0.37-1.6-0.55-2.68-0.55h-4.68v18.76H211.91z M220.92,104.58l5.03,9.22h-2.16l-4.98-9.22    H220.92z"></path>
		<path class="st0" d="M235.59,114.12c-1.43,0-2.67-0.33-3.71-1c-1.04-0.67-1.85-1.6-2.42-2.78c-0.57-1.19-0.85-2.56-0.85-4.11    c0-1.54,0.28-2.92,0.85-4.12c0.57-1.2,1.36-2.14,2.37-2.82s2.17-1.02,3.5-1.02c0.83,0,1.63,0.15,2.4,0.45    c0.77,0.3,1.47,0.76,2.08,1.39c0.62,0.62,1.1,1.4,1.46,2.35c0.36,0.94,0.54,2.05,0.54,3.34v0.88h-11.97v-1.57h10.16    c0-0.98-0.2-1.87-0.59-2.66c-0.4-0.79-0.94-1.41-1.65-1.87c-0.7-0.46-1.51-0.69-2.43-0.69c-0.97,0-1.83,0.26-2.56,0.78    s-1.32,1.2-1.73,2.06c-0.42,0.85-0.63,1.78-0.63,2.79v0.94c0,1.22,0.21,2.28,0.63,3.19c0.42,0.91,1.02,1.61,1.8,2.11    s1.7,0.75,2.76,0.75c0.73,0,1.36-0.11,1.91-0.34c0.55-0.23,1.01-0.53,1.39-0.91c0.38-0.38,0.66-0.8,0.85-1.26l1.69,0.55    c-0.23,0.65-0.61,1.24-1.14,1.79c-0.53,0.55-1.19,0.98-1.98,1.31C237.52,113.96,236.61,114.12,235.59,114.12z"></path>
		<path class="st0" d="M256.29,101.84l-1.63,0.46c-0.16-0.46-0.39-0.87-0.68-1.25c-0.29-0.37-0.67-0.67-1.14-0.89    s-1.05-0.33-1.74-0.33c-1.04,0-1.89,0.25-2.55,0.74c-0.67,0.49-1,1.13-1,1.91c0,0.66,0.23,1.19,0.68,1.6    c0.46,0.41,1.16,0.73,2.11,0.97l2.32,0.57c1.28,0.31,2.25,0.81,2.89,1.49c0.64,0.68,0.96,1.53,0.96,2.55    c0,0.86-0.24,1.63-0.72,2.31c-0.48,0.67-1.15,1.2-2,1.58c-0.85,0.38-1.84,0.57-2.97,0.57c-1.5,0-2.73-0.34-3.7-1.01    c-0.97-0.67-1.59-1.65-1.87-2.93l1.71-0.42c0.22,0.91,0.65,1.6,1.29,2.07c0.64,0.47,1.49,0.7,2.54,0.7c1.18,0,2.12-0.26,2.82-0.79    c0.7-0.53,1.06-1.19,1.06-1.99c0-0.62-0.21-1.14-0.62-1.56c-0.41-0.42-1.04-0.73-1.88-0.93l-2.5-0.6    c-1.33-0.32-2.31-0.82-2.95-1.52c-0.64-0.69-0.96-1.55-0.96-2.57c0-0.85,0.23-1.59,0.69-2.23c0.46-0.64,1.09-1.15,1.9-1.51    c0.8-0.37,1.72-0.55,2.75-0.55c1.4,0,2.53,0.32,3.37,0.95C255.31,99.85,255.91,100.73,256.29,101.84z"></path>
		<path class="st0" d="M266.88,114.12c-1.43,0-2.67-0.33-3.71-1c-1.04-0.67-1.85-1.6-2.42-2.78c-0.57-1.19-0.85-2.56-0.85-4.11    c0-1.54,0.28-2.92,0.85-4.12s1.36-2.14,2.37-2.82s2.17-1.02,3.5-1.02c0.83,0,1.63,0.15,2.4,0.45c0.77,0.3,1.47,0.76,2.08,1.39    c0.62,0.62,1.1,1.4,1.46,2.35c0.36,0.94,0.54,2.05,0.54,3.34v0.88h-11.97v-1.57h10.16c0-0.98-0.2-1.87-0.59-2.66    s-0.94-1.41-1.65-1.87c-0.7-0.46-1.51-0.69-2.43-0.69c-0.97,0-1.83,0.26-2.56,0.78c-0.74,0.52-1.32,1.2-1.73,2.06    c-0.42,0.85-0.63,1.78-0.63,2.79v0.94c0,1.22,0.21,2.28,0.63,3.19c0.42,0.91,1.02,1.61,1.8,2.11c0.78,0.5,1.7,0.75,2.76,0.75    c0.72,0,1.36-0.11,1.91-0.34c0.55-0.23,1.01-0.53,1.39-0.91c0.38-0.38,0.66-0.8,0.85-1.26l1.69,0.55    c-0.23,0.65-0.61,1.24-1.14,1.79c-0.53,0.55-1.19,0.98-1.98,1.31C268.81,113.96,267.9,114.12,266.88,114.12z"></path>
		<path class="st0" d="M281.56,114.15c-0.92,0-1.77-0.18-2.53-0.54c-0.77-0.36-1.37-0.89-1.83-1.58c-0.45-0.69-0.68-1.53-0.68-2.51    c0-0.76,0.14-1.4,0.43-1.92c0.29-0.52,0.69-0.94,1.22-1.28c0.53-0.33,1.15-0.6,1.87-0.79c0.72-0.19,1.51-0.34,2.38-0.45    c0.86-0.11,1.58-0.2,2.18-0.28c0.6-0.08,1.05-0.21,1.36-0.38c0.31-0.17,0.47-0.45,0.47-0.84v-0.36c0-1.04-0.31-1.87-0.93-2.47    c-0.62-0.6-1.51-0.9-2.68-0.9c-1.1,0-2,0.24-2.7,0.73c-0.7,0.49-1.18,1.06-1.46,1.72l-1.69-0.61c0.35-0.84,0.82-1.51,1.44-2.01    c0.61-0.5,1.3-0.86,2.06-1.09c0.76-0.22,1.53-0.33,2.31-0.33c0.59,0,1.2,0.08,1.83,0.23c0.64,0.15,1.23,0.42,1.77,0.79    c0.55,0.38,0.99,0.9,1.33,1.57c0.34,0.67,0.51,1.51,0.51,2.54v10.41h-1.78v-2.42h-0.11c-0.21,0.45-0.53,0.89-0.95,1.32    c-0.42,0.43-0.94,0.78-1.58,1.05C283.15,114.01,282.41,114.15,281.56,114.15z M281.79,112.52c0.94,0,1.76-0.21,2.45-0.63    c0.69-0.42,1.23-0.98,1.6-1.67c0.38-0.69,0.56-1.46,0.56-2.3v-2.22c-0.13,0.13-0.35,0.24-0.66,0.34c-0.31,0.1-0.67,0.19-1.07,0.26    c-0.4,0.08-0.8,0.14-1.2,0.19c-0.4,0.05-0.76,0.1-1.08,0.14c-0.86,0.11-1.6,0.27-2.22,0.5c-0.61,0.23-1.08,0.54-1.41,0.93    c-0.33,0.4-0.49,0.9-0.49,1.52c0,0.93,0.33,1.65,1,2.16C279.96,112.27,280.79,112.52,281.79,112.52z"></path>
		<path class="st0" d="M293.19,113.8V98.47h1.73v2.35h0.13c0.31-0.77,0.84-1.4,1.6-1.87c0.76-0.48,1.62-0.71,2.59-0.71    c0.15,0,0.31,0,0.49,0.01c0.18,0.01,0.33,0.01,0.45,0.02v1.81c-0.08-0.01-0.22-0.03-0.42-0.06c-0.2-0.03-0.42-0.04-0.65-0.04    c-0.8,0-1.51,0.17-2.13,0.5c-0.62,0.34-1.11,0.8-1.47,1.39c-0.36,0.59-0.54,1.27-0.54,2.03v9.9H293.19z"></path>
		<path class="st0" d="M309,114.12c-1.37,0-2.56-0.34-3.58-1.03c-1.01-0.69-1.8-1.62-2.36-2.81c-0.56-1.19-0.84-2.55-0.84-4.07    c0-1.54,0.28-2.9,0.85-4.1c0.57-1.2,1.36-2.14,2.37-2.82c1.01-0.68,2.19-1.02,3.52-1.02c1.02,0,1.95,0.2,2.78,0.59    c0.83,0.4,1.52,0.95,2.06,1.67c0.54,0.71,0.88,1.55,1.02,2.5h-1.8c-0.19-0.86-0.63-1.6-1.34-2.22c-0.71-0.62-1.61-0.92-2.7-0.92    c-0.98,0-1.84,0.26-2.59,0.79c-0.75,0.53-1.34,1.26-1.76,2.21c-0.42,0.94-0.63,2.03-0.63,3.27c0,1.24,0.21,2.34,0.62,3.3    c0.41,0.95,0.99,1.7,1.74,2.24s1.63,0.81,2.63,0.81c0.68,0,1.3-0.13,1.86-0.38c0.56-0.26,1.03-0.62,1.42-1.09    c0.38-0.47,0.64-1.03,0.77-1.69h1.8c-0.13,0.92-0.46,1.75-0.98,2.47c-0.52,0.72-1.2,1.29-2.03,1.7    C311.01,113.91,310.06,114.12,309,114.12z"></path>
		<path class="st0" d="M320.71,104.22v9.58h-1.78V93.37h1.78v7.51h0.16c0.36-0.79,0.92-1.42,1.67-1.9c0.76-0.47,1.71-0.71,2.87-0.71    c1.04,0,1.95,0.21,2.73,0.64c0.78,0.43,1.4,1.05,1.84,1.89c0.44,0.83,0.66,1.86,0.66,3.07v9.93h-1.79v-9.82    c0-1.26-0.35-2.26-1.05-2.99c-0.7-0.73-1.65-1.09-2.84-1.09c-0.82,0-1.55,0.17-2.19,0.52c-0.64,0.35-1.14,0.84-1.51,1.49    C320.89,102.56,320.71,103.33,320.71,104.22z"></path>
		<path class="st0" d="M341.07,114.08c-1.26,0-2.35-0.24-3.29-0.73c-0.94-0.49-1.67-1.16-2.19-2c-0.52-0.84-0.78-1.8-0.78-2.86    c0-0.77,0.16-1.47,0.47-2.09c0.32-0.62,0.77-1.21,1.37-1.78c0.6-0.56,1.32-1.15,2.18-1.75l2.96-2.21c0.7-0.51,1.24-1,1.61-1.49    c0.37-0.49,0.55-1.09,0.55-1.8c0-0.69-0.26-1.3-0.77-1.84c-0.52-0.54-1.18-0.81-2-0.81c-0.57,0-1.08,0.14-1.53,0.43    c-0.45,0.29-0.8,0.66-1.07,1.11c-0.26,0.46-0.39,0.93-0.39,1.43c0,0.47,0.12,0.93,0.36,1.4s0.56,0.96,0.97,1.48    c0.41,0.52,0.86,1.08,1.36,1.7l9.34,11.54h-2.16l-8.14-9.99c-0.69-0.84-1.29-1.59-1.83-2.25c-0.53-0.66-0.95-1.3-1.26-1.92    c-0.31-0.62-0.46-1.28-0.46-1.98c0-0.87,0.2-1.65,0.61-2.33c0.41-0.68,0.97-1.22,1.68-1.61c0.71-0.39,1.53-0.59,2.46-0.59    c0.94,0,1.76,0.19,2.46,0.58c0.7,0.39,1.23,0.9,1.62,1.54c0.38,0.64,0.57,1.34,0.57,2.12c0,0.92-0.24,1.74-0.71,2.45    c-0.48,0.71-1.17,1.41-2.07,2.1l-3.71,2.77c-1.02,0.77-1.72,1.47-2.1,2.13c-0.38,0.65-0.57,1.21-0.57,1.67    c0,0.72,0.19,1.38,0.56,1.99c0.37,0.61,0.89,1.09,1.55,1.46c0.66,0.37,1.42,0.55,2.28,0.56c0.85-0.01,1.65-0.18,2.41-0.51    c0.75-0.34,1.42-0.82,2.02-1.44c0.6-0.63,1.07-1.37,1.44-2.25c0.36-0.87,0.57-1.84,0.63-2.91l1.73,0.02    c-0.03,1.1-0.17,2.03-0.44,2.79s-0.58,1.39-0.92,1.88c-0.35,0.49-0.65,0.89-0.91,1.19c-0.07,0.1-0.15,0.2-0.22,0.3    c-0.07,0.1-0.15,0.2-0.23,0.3c-0.67,0.73-1.49,1.29-2.48,1.67C343.04,113.89,342.06,114.08,341.07,114.08z"></path>
		<path class="st0" d="M355.56,93.37v20.44h-1.87V93.37H355.56z"></path>
		<path class="st0" d="M362.68,104.22v9.58h-1.78V98.47h1.73v2.4h0.16c0.36-0.79,0.92-1.42,1.68-1.89c0.76-0.48,1.7-0.71,2.83-0.71    c1.03,0,1.94,0.21,2.72,0.64c0.78,0.43,1.39,1.06,1.83,1.89c0.44,0.83,0.65,1.85,0.65,3.06v9.93h-1.78v-9.82    c0-1.26-0.35-2.25-1.05-2.98c-0.7-0.73-1.64-1.1-2.82-1.1c-0.8,0-1.52,0.17-2.15,0.52c-0.63,0.35-1.12,0.84-1.48,1.49    C362.86,102.56,362.68,103.33,362.68,104.22z"></path>
		<path class="st0" d="M379.25,104.22v9.58h-1.78V98.47h1.73v2.4h0.16c0.36-0.79,0.92-1.42,1.68-1.89c0.76-0.48,1.7-0.71,2.83-0.71    c1.03,0,1.94,0.21,2.72,0.64c0.78,0.43,1.39,1.06,1.83,1.89c0.44,0.83,0.65,1.85,0.65,3.06v9.93h-1.78v-9.82    c0-1.26-0.35-2.25-1.05-2.98c-0.7-0.73-1.64-1.1-2.82-1.1c-0.8,0-1.52,0.17-2.15,0.52c-0.63,0.35-1.12,0.84-1.48,1.49    C379.43,102.56,379.25,103.33,379.25,104.22z"></path>
		<path class="st0" d="M399.99,114.12c-1.32,0-2.49-0.34-3.51-1.01c-1.01-0.67-1.81-1.6-2.38-2.79c-0.57-1.19-0.86-2.56-0.86-4.12    c0-1.57,0.29-2.95,0.86-4.15c0.57-1.19,1.37-2.13,2.38-2.79c1.01-0.67,2.18-1,3.51-1c1.32,0,2.49,0.34,3.5,1.01    c1.01,0.67,1.8,1.6,2.38,2.79c0.58,1.19,0.86,2.57,0.86,4.14c0,1.56-0.29,2.93-0.86,4.12c-0.57,1.19-1.37,2.12-2.38,2.79    C402.48,113.78,401.32,114.12,399.99,114.12z M399.99,112.49c1.06,0,1.97-0.29,2.7-0.86s1.3-1.33,1.68-2.29    c0.38-0.95,0.57-2,0.57-3.14c0-1.14-0.19-2.2-0.57-3.15c-0.38-0.96-0.94-1.73-1.68-2.31s-1.64-0.87-2.7-0.87    c-1.06,0-1.96,0.29-2.7,0.87c-0.74,0.58-1.3,1.35-1.69,2.31c-0.38,0.96-0.57,2.01-0.57,3.15c0,1.14,0.19,2.19,0.57,3.14    c0.38,0.95,0.94,1.71,1.68,2.29S398.93,112.49,399.99,112.49z"></path>
		<path class="st0" d="M422.22,98.47l-5.6,15.33h-1.9l-5.6-15.33h1.93l4.55,12.98h0.14l4.55-12.98H422.22z"></path>
		<path class="st0" d="M429.77,114.15c-0.92,0-1.77-0.18-2.53-0.54c-0.77-0.36-1.37-0.89-1.83-1.58c-0.45-0.69-0.68-1.53-0.68-2.51    c0-0.76,0.14-1.4,0.43-1.92c0.29-0.52,0.69-0.94,1.22-1.28c0.53-0.33,1.15-0.6,1.87-0.79c0.72-0.19,1.51-0.34,2.38-0.45    c0.86-0.11,1.58-0.2,2.18-0.28c0.6-0.08,1.05-0.21,1.36-0.38c0.31-0.17,0.47-0.45,0.47-0.84v-0.36c0-1.04-0.31-1.87-0.93-2.47    c-0.62-0.6-1.51-0.9-2.68-0.9c-1.1,0-2,0.24-2.7,0.73c-0.7,0.49-1.18,1.06-1.46,1.72l-1.69-0.61c0.35-0.84,0.82-1.51,1.44-2.01    c0.61-0.5,1.3-0.86,2.06-1.09c0.76-0.22,1.53-0.33,2.31-0.33c0.59,0,1.2,0.08,1.83,0.23c0.64,0.15,1.23,0.42,1.77,0.79    c0.55,0.38,0.99,0.9,1.33,1.57c0.34,0.67,0.51,1.51,0.51,2.54v10.41h-1.78v-2.42h-0.11c-0.21,0.45-0.53,0.89-0.95,1.32    c-0.42,0.43-0.94,0.78-1.58,1.05C431.36,114.01,430.62,114.15,429.77,114.15z M430.01,112.52c0.94,0,1.76-0.21,2.45-0.63    c0.69-0.42,1.23-0.98,1.6-1.67c0.38-0.69,0.56-1.46,0.56-2.3v-2.22c-0.13,0.13-0.35,0.24-0.66,0.34c-0.31,0.1-0.67,0.19-1.07,0.26    c-0.4,0.08-0.8,0.14-1.2,0.19c-0.4,0.05-0.76,0.1-1.08,0.14c-0.86,0.11-1.6,0.27-2.22,0.5c-0.61,0.23-1.08,0.54-1.41,0.93    c-0.33,0.4-0.49,0.9-0.49,1.52c0,0.93,0.33,1.65,1,2.16C428.17,112.27,429.01,112.52,430.01,112.52z"></path>
		<path class="st0" d="M447.44,98.47v1.55h-7.31v-1.55H447.44z M442.41,94.8h1.79v15c0,0.64,0.11,1.14,0.33,1.5    c0.22,0.36,0.51,0.62,0.86,0.77c0.35,0.15,0.73,0.22,1.13,0.22c0.23,0,0.43-0.02,0.6-0.04c0.17-0.03,0.31-0.06,0.44-0.1l0.38,1.61    c-0.17,0.07-0.39,0.13-0.64,0.18c-0.25,0.06-0.57,0.08-0.94,0.08c-0.65,0-1.28-0.14-1.88-0.43c-0.6-0.29-1.1-0.71-1.48-1.28    c-0.39-0.57-0.58-1.27-0.58-2.11V94.8z"></path>
		<path class="st0" d="M452.68,95.84c-0.37,0-0.68-0.13-0.94-0.37c-0.26-0.25-0.39-0.55-0.39-0.9s0.13-0.65,0.39-0.9    c0.26-0.25,0.57-0.37,0.94-0.37c0.37,0,0.68,0.12,0.94,0.37c0.26,0.25,0.39,0.55,0.39,0.9s-0.13,0.65-0.39,0.9    C453.36,95.71,453.05,95.84,452.68,95.84z M451.78,113.8V98.47h1.79v15.33H451.78z"></path>
		<path class="st0" d="M464.51,114.12c-1.32,0-2.49-0.34-3.51-1.01c-1.01-0.67-1.81-1.6-2.38-2.79c-0.57-1.19-0.86-2.56-0.86-4.12    c0-1.57,0.29-2.95,0.86-4.15c0.57-1.19,1.37-2.13,2.38-2.79c1.01-0.67,2.18-1,3.51-1c1.32,0,2.49,0.34,3.5,1.01    c1.01,0.67,1.8,1.6,2.38,2.79c0.58,1.19,0.86,2.57,0.86,4.14c0,1.56-0.29,2.93-0.86,4.12c-0.57,1.19-1.37,2.12-2.38,2.79    C467,113.78,465.83,114.12,464.51,114.12z M464.51,112.49c1.06,0,1.97-0.29,2.7-0.86c0.74-0.57,1.3-1.33,1.68-2.29    c0.38-0.95,0.57-2,0.57-3.14c0-1.14-0.19-2.2-0.57-3.15c-0.38-0.96-0.94-1.73-1.68-2.31c-0.74-0.58-1.64-0.87-2.7-0.87    c-1.06,0-1.96,0.29-2.7,0.87c-0.74,0.58-1.3,1.35-1.69,2.31c-0.38,0.96-0.57,2.01-0.57,3.15c0,1.14,0.19,2.19,0.57,3.14    c0.38,0.95,0.94,1.71,1.68,2.29S463.45,112.49,464.51,112.49z"></path>
		<path class="st0" d="M477.21,104.22v9.58h-1.78V98.47h1.73v2.4h0.16c0.36-0.79,0.92-1.42,1.68-1.89c0.76-0.48,1.7-0.71,2.83-0.71    c1.03,0,1.94,0.21,2.72,0.64c0.78,0.43,1.39,1.06,1.83,1.89c0.44,0.83,0.65,1.85,0.65,3.06v9.93h-1.78v-9.82    c0-1.26-0.35-2.25-1.05-2.98c-0.7-0.73-1.64-1.1-2.82-1.1c-0.8,0-1.52,0.17-2.15,0.52c-0.63,0.35-1.12,0.84-1.48,1.49    C477.39,102.56,477.21,103.33,477.21,104.22z"></path>
	</g>
</g>
</svg>
